<?xml version="1.0"?>
<svg xmlns="http://www.w3.org/2000/svg" width="512" height="512" viewBox="0 0 512 512"><g><path d="M491.41,238.55A8,8,0,0,0,504,232V200a7.978,7.978,0,0,0-3.41-6.55l-240-168a8,8,0,0,0-9.18,0L112,123.03V78.62a24,24,0,1,0-16,0v55.61L11.41,193.45A7.978,7.978,0,0,0,8,200v32a8,8,0,0,0,12.59,6.55L56,213.77V424H40a8,8,0,0,0-8,8v16H16a8,8,0,0,0-8,8v24a8,8,0,0,0,8,8H496a8,8,0,0,0,8-8V456a8,8,0,0,0-8-8H480V432a8,8,0,0,0-8-8H456V213.77ZM104,48a8,8,0,1,1-8,8A8.011,8.011,0,0,1,104,48ZM488,464v8H24v-8Zm-24-24v8H48v-8ZM304,264H208a8,8,0,0,0-8,8V424H72V202.57L256,73.77l184,128.8V424H312V272A8,8,0,0,0,304,264Zm-8,16V424H216V280ZM260.59,57.45a7.99,7.99,0,0,0-9.18,0L24,216.63V204.17L256,41.77l232,162.4v12.46Z"/><path d="M272.188,197.282A24,24,0,1,0,255.973,239q.552,0,1.107-.024a24,24,0,0,0,15.108-41.694ZM261.9,220.4a8,8,0,0,1-13.9-5.035h0a8,8,0,0,1,7.631-8.351c.124-.006.247-.009.37-.009a8,8,0,0,1,5.895,13.4Z"/><path d="M256,168.351a31.788,31.788,0,0,0-22.624,9.371,8,8,0,1,0,11.314,11.314,16,16,0,0,1,23.311.735,8,8,0,1,0,12-10.585A32.018,32.018,0,0,0,256,168.351Z"/><path d="M292.656,158.021a55.991,55.991,0,0,0-74.936,1.465,8,8,0,1,0,10.941,11.674,39.994,39.994,0,0,1,53.517-1.049,8,8,0,1,0,10.478-12.09Z"/><path d="M202.04,152.036a8,8,0,0,0,11.3.624,63.988,63.988,0,0,1,85.336,0,8,8,0,0,0,10.674-11.919,79.986,79.986,0,0,0-106.682-.006A8,8,0,0,0,202.04,152.036Z"/><path d="M280,368a8,8,0,0,0,8-8V344a8,8,0,0,0-16,0v16A8,8,0,0,0,280,368Z"/><path d="M424,264H328a8,8,0,0,0-8,8v80a8,8,0,0,0,8,8h96a8,8,0,0,0,8-8V272A8,8,0,0,0,424,264Zm-56,80H336V320h32Zm0-40H336V280h32Zm48,40H384V320h32Zm0-40H384V280h32Z"/><path d="M184,264H88a8,8,0,0,0-8,8v80a8,8,0,0,0,8,8h96a8,8,0,0,0,8-8V272A8,8,0,0,0,184,264Zm-8,40H144V280h32ZM96,280h32v24H96Zm0,40h32v24H96Zm80,24H144V320h32Z"/></g></svg>
