<svg height="480pt" viewBox="0 0 480 480" width="480pt" xmlns="http://www.w3.org/2000/svg"><path d="m360 240c0 66.273438-53.726562 120-120 120s-120-53.726562-120-120 53.726562-120 120-120 120 53.726562 120 120zm0 0" fill="#f7ba61"/><path d="m344 240c0 57.4375-46.5625 104-104 104s-104-46.5625-104-104 46.5625-104 104-104 104 46.5625 104 104zm0 0" fill="#fbedbf"/><path d="m280 240h-32l8-88-64 88h32l-8 88zm0 0" fill="#fd9226"/><g fill="#f7ba61"><path d="m232 0h16v96h-16zm0 0"/><path d="m64.632812 75.953125 11.3125-11.3125 67.882813 67.882813-11.3125 11.3125zm0 0"/><path d="m0 232h96v16h-96zm0 0"/><path d="m64.636719 404.042969 67.878906-67.882813 11.316406 11.316406-67.882812 67.878907zm0 0"/><path d="m232 384h16v96h-16zm0 0"/><path d="m336.167969 347.476562 11.3125-11.3125 67.882812 67.882813-11.3125 11.3125zm0 0"/><path d="m384 232h96v16h-96zm0 0"/><path d="m336.175781 132.523438 67.878907-67.878907 11.316406 11.3125-67.882813 67.882813zm0 0"/></g><path d="m168.324219 87.851562 14.78125-6.121093 18.367187 44.347656-14.78125 6.121094zm0 0" fill="#ff9557"/><path d="m81.726562 183.097656 6.125-14.78125 44.34375 18.367188-6.121093 14.78125zm0 0" fill="#ff9557"/><path d="m81.726562 296.898438 44.34375-18.375 6.125 14.78125-44.34375 18.375zm0 0" fill="#ff9557"/><path d="m168.316406 392.148438 18.375-44.34375 14.78125 6.125-18.375 44.34375zm0 0" fill="#ff9557"/><path d="m278.53125 353.929688 14.78125-6.121094 18.367188 44.347656-14.78125 6.121094zm0 0" fill="#ff9557"/><path d="m347.800781 293.308594 6.121094-14.78125 44.347656 18.367187-6.125 14.78125zm0 0" fill="#ff9557"/><path d="m347.804688 186.691406 44.34375-18.375 6.125 14.78125-44.34375 18.375zm0 0" fill="#ff9557"/><path d="m278.527344 126.070312 18.375-44.34375 14.78125 6.125-18.375 44.34375zm0 0" fill="#ff9557"/><path d="m354.816406 296.214844 37.335938 15.464844 6.121094-14.785157-37.296876-15.445312c9.363282-26.839844 9.363282-56.058594 0-82.898438l37.296876-15.445312-6.121094-14.785157-37.335938 15.464844c-12.53125-25.46875-33.132812-46.070312-58.601562-58.601562l15.464844-37.335938-14.785157-6.121094-15.445312 37.296876c-26.839844-9.363282-56.058594-9.363282-82.898438 0l-15.445312-37.296876-14.785157 6.121094 15.464844 37.335938c-25.46875 12.53125-46.070312 33.132812-58.601562 58.601562l-37.335938-15.464844-6.121094 14.785157 37.296876 15.445312c-9.363282 26.839844-9.363282 56.058594 0 82.898438l-37.296876 15.445312 6.121094 14.785157 37.335938-15.464844c12.53125 25.46875 33.132812 46.070312 58.601562 58.601562l-15.464844 37.335938 14.785157 6.121094 15.445312-37.296876c26.839844 9.363282 56.058594 9.363282 82.898438 0l15.445312 37.296876 14.785157-6.121094-15.464844-37.335938c25.46875-12.53125 46.070312-33.132812 58.601562-58.601562zm-114.816406 55.785156c-61.855469 0-112-50.144531-112-112s50.144531-112 112-112 112 50.144531 112 112c-.066406 61.828125-50.171875 111.933594-112 112zm0 0"/><path d="m280 232h-23.199219l7.199219-79.273438c.300781-3.5625-1.800781-6.890624-5.148438-8.152343-3.347656-1.261719-7.121093-.152344-9.25 2.722656l-64 88c-1.761718 2.421875-2.023437 5.628906-.675781 8.300781 1.347657 2.675782 4.078125 4.375 7.074219 4.402344h23.238281l-7.238281 79.273438c-.300781 3.5625 1.800781 6.890624 5.148438 8.152343 3.347656 1.261719 7.121093.152344 9.25-2.722656l64-88c1.761718-2.421875 2.023437-5.628906.675781-8.300781-1.347657-2.675782-4.078125-4.375-7.074219-4.402344zm-53.40625 67.832031 5.40625-59.105469c.207031-2.242187-.546875-4.46875-2.070312-6.132812-1.523438-1.660156-3.675782-2.601562-5.929688-2.59375h-16.289062l37.695312-51.832031-5.40625 59.105469c-.207031 2.242187.546875 4.46875 2.070312 6.132812 1.523438 1.660156 3.675782 2.601562 5.929688 2.59375h16.289062zm0 0"/><path d="m232 0h16v96h-16zm0 0"/><path d="m64.632812 75.953125 11.3125-11.3125 67.882813 67.882813-11.3125 11.3125zm0 0"/><path d="m0 232h96v16h-96zm0 0"/><path d="m64.636719 404.042969 67.878906-67.882813 11.316406 11.316406-67.882812 67.878907zm0 0"/><path d="m232 384h16v96h-16zm0 0"/><path d="m336.167969 347.476562 11.3125-11.3125 67.882812 67.882813-11.3125 11.3125zm0 0"/><path d="m384 232h96v16h-96zm0 0"/><path d="m336.175781 132.523438 67.878907-67.878907 11.316406 11.3125-67.882813 67.882813zm0 0"/></svg>